0
SECTION
2
ENTITIES
0
LINE
8
FCrtYd
62
7
10
163.075
20
-92.6
11
173.475
21
-92.6
0
LINE
8
FCrtYd
62
7
10
163.075
20
-85.2
11
163.075
21
-92.6
0
LINE
8
FCrtYd
62
7
10
173.475
20
-92.6
11
173.475
21
-85.2
0
LINE
8
FCrtYd
62
7
10
173.475
20
-85.2
11
163.075
21
-85.2
0
LINE
8
FFab
62
5
10
173.225
20
-90.85
11
163.325
21
-90.85
0
LINE
8
FFab
62
5
10
173.225
20
-87.925
11
173.225
21
-90.85
0
LINE
8
FFab
62
5
10
163.325
20
-86.95
11
172.25
21
-86.95
0
LINE
8
FFab
62
5
10
172.25
20
-86.95
11
173.225
21
-87.925
0
LINE
8
FFab
62
5
10
163.325
20
-90.85
11
163.325
21
-86.95
0
CIRCLE
8
Cmts
62
1
10
186.944
20
-103.124
40
3.2
0
CIRCLE
8
FCrtYd
62
7
10
186.944
20
-103.124
40
3.45
0
LINE
8
FCrtYd
62
7
10
182.23
20
-62.025
11
186.07
21
-62.025
0
LINE
8
FCrtYd
62
7
10
182.23
20
-58.625
11
182.23
21
-62.025
0
LINE
8
FCrtYd
62
7
10
186.07
20
-62.025
11
186.07
21
-58.625
0
LINE
8
FCrtYd
62
7
10
186.07
20
-58.625
11
182.23
21
-58.625
0
LINE
8
FFab
62
5
10
183.5
20
-61.775
11
183.5
21
-59.2
0
LINE
8
FFab
62
5
10
184.8
20
-61.775
11
183.5
21
-61.775
0
LINE
8
FFab
62
5
10
183.5
20
-59.2
11
183.825
21
-58.875
0
LINE
8
FFab
62
5
10
183.825
20
-58.875
11
184.8
21
-58.875
0
LINE
8
FFab
62
5
10
184.8
20
-58.875
11
184.8
21
-61.775
0
LINE
8
FCrtYd
62
7
10
183.615
20
-82.064
11
189.765
21
-82.064
0
LINE
8
FCrtYd
62
7
10
183.615
20
-78.464
11
183.615
21
-82.064
0
LINE
8
FCrtYd
62
7
10
189.765
20
-82.064
11
189.765
21
-78.464
0
LINE
8
FCrtYd
62
7
10
189.765
20
-78.464
11
183.615
21
-78.464
0
LINE
8
FFab
62
5
10
189.235
20
-79.629
11
189.235
21
-81.534
0
LINE
8
FFab
62
5
10
184.155
20
-81.534
11
184.155
21
-78.994
0
LINE
8
FFab
62
5
10
188.6
20
-78.994
11
189.235
21
-79.629
0
LINE
8
FFab
62
5
10
184.155
20
-78.994
11
188.6
21
-78.994
0
LINE
8
FFab
62
5
10
189.235
20
-81.534
11
184.155
21
-81.534
0
LINE
8
FCrtYd
62
7
10
151.975
20
-65.31
11
151.975
21
-66.77
0
LINE
8
FCrtYd
62
7
10
151.975
20
-66.77
11
149.015
21
-66.77
0
LINE
8
FCrtYd
62
7
10
149.015
20
-65.31
11
151.975
21
-65.31
0
LINE
8
FCrtYd
62
7
10
149.015
20
-66.77
11
149.015
21
-65.31
0
LINE
8
FFab
62
5
10
151.295
20
-65.6275
11
151.295
21
-66.4525
0
LINE
8
FFab
62
5
10
151.295
20
-66.4525
11
149.695
21
-66.4525
0
LINE
8
FFab
62
5
10
149.695
20
-65.6275
11
151.295
21
-65.6275
0
LINE
8
FFab
62
5
10
149.695
20
-66.4525
11
149.695
21
-65.6275
0
LINE
8
FCrtYd
62
7
10
164.37
20
-77.31
11
164.37
21
-82.71
0
LINE
8
FCrtYd
62
7
10
171.77
20
-82.71
11
171.77
21
-77.31
0
LINE
8
FCrtYd
62
7
10
171.77
20
-77.31
11
164.37
21
-77.31
0
LINE
8
FCrtYd
62
7
10
164.37
20
-82.71
11
171.77
21
-82.71
0
LINE
8
FFab
62
5
10
170.02
20
-77.56
11
170.02
21
-82.46
0
LINE
8
FFab
62
5
10
167.095
20
-77.56
11
170.02
21
-77.56
0
LINE
8
FFab
62
5
10
170.02
20
-82.46
11
166.12
21
-82.46
0
LINE
8
FFab
62
5
10
166.12
20
-78.535
11
167.095
21
-77.56
0
LINE
8
FFab
62
5
10
166.12
20
-82.46
11
166.12
21
-78.535
0
LINE
8
FCrtYd
62
7
10
173.844
20
-79.95375
11
173.844
21
-78.49375
0
LINE
8
FCrtYd
62
7
10
173.844
20
-78.49375
11
176.804
21
-78.49375
0
LINE
8
FCrtYd
62
7
10
176.804
20
-79.95375
11
173.844
21
-79.95375
0
LINE
8
FCrtYd
62
7
10
176.804
20
-78.49375
11
176.804
21
-79.95375
0
LINE
8
FFab
62
5
10
174.524
20
-78.81125
11
176.124
21
-78.81125
0
LINE
8
FFab
62
5
10
176.124
20
-78.81125
11
176.124
21
-79.63625
0
LINE
8
FFab
62
5
10
176.124
20
-79.63625
11
174.524
21
-79.63625
0
LINE
8
FFab
62
5
10
174.524
20
-79.63625
11
174.524
21
-78.81125
0
LINE
8
FCrtYd
62
7
10
149.015
20
-62.77
11
151.975
21
-62.77
0
LINE
8
FCrtYd
62
7
10
149.015
20
-64.23
11
149.015
21
-62.77
0
LINE
8
FCrtYd
62
7
10
151.975
20
-64.23
11
149.015
21
-64.23
0
LINE
8
FCrtYd
62
7
10
151.975
20
-62.77
11
151.975
21
-64.23
0
LINE
8
FFab
62
5
10
151.295
20
-63.9125
11
149.695
21
-63.9125
0
LINE
8
FFab
62
5
10
151.295
20
-63.0875
11
151.295
21
-63.9125
0
LINE
8
FFab
62
5
10
149.695
20
-63.0875
11
151.295
21
-63.0875
0
LINE
8
FFab
62
5
10
149.695
20
-63.9125
11
149.695
21
-63.0875
0
LINE
8
FCrtYd
62
7
10
149.015
20
-59.15
11
149.015
21
-57.69
0
LINE
8
FCrtYd
62
7
10
151.975
20
-59.15
11
149.015
21
-59.15
0
LINE
8
FCrtYd
62
7
10
149.015
20
-57.69
11
151.975
21
-57.69
0
LINE
8
FCrtYd
62
7
10
151.975
20
-57.69
11
151.975
21
-59.15
0
LINE
8
FFab
62
5
10
151.295
20
-58.8325
11
149.695
21
-58.8325
0
LINE
8
FFab
62
5
10
149.695
20
-58.8325
11
149.695
21
-58.0075
0
LINE
8
FFab
62
5
10
151.295
20
-58.0075
11
151.295
21
-58.8325
0
LINE
8
FFab
62
5
10
149.695
20
-58.0075
11
151.295
21
-58.0075
0
LINE
8
FCrtYd
62
7
10
182.096
20
-78.635
11
190.746
21
-78.635
0
LINE
8
FCrtYd
62
7
10
190.746
20
-75.035
11
182.096
21
-75.035
0
LINE
8
FCrtYd
62
7
10
182.096
20
-75.035
11
182.096
21
-78.635
0
LINE
8
FCrtYd
62
7
10
190.746
20
-78.635
11
190.746
21
-75.035
0
LINE
8
FFab
62
5
10
182.626
20
-75.565
11
190.246
21
-75.565
0
LINE
8
FFab
62
5
10
190.246
20
-75.565
11
190.246
21
-78.105
0
LINE
8
FFab
62
5
10
183.261
20
-78.105
11
182.626
21
-77.47
0
LINE
8
FFab
62
5
10
190.246
20
-78.105
11
183.261
21
-78.105
0
LINE
8
FFab
62
5
10
182.626
20
-77.47
11
182.626
21
-75.565
0
LINE
8
FCrtYd
62
7
10
152.152
20
-97.504
11
152.152
21
-93.504
0
LINE
8
FCrtYd
62
7
10
152.152
20
-93.504
11
146.552
21
-93.504
0
LINE
8
FCrtYd
62
7
10
146.552
20
-97.504
11
152.152
21
-97.504
0
LINE
8
FCrtYd
62
7
10
146.552
20
-93.504
11
146.552
21
-97.504
0
LINE
8
FFab
62
5
10
147.602
20
-93.754
11
147.602
21
-97.254
0
LINE
8
FFab
62
5
10
151.102
20
-97.254
11
151.102
21
-93.754
0
LINE
8
FFab
62
5
10
151.102
20
-96.254
11
150.102
21
-97.254
0
LINE
8
FFab
62
5
10
147.602
20
-97.254
11
151.102
21
-97.254
0
LINE
8
FFab
62
5
10
151.102
20
-93.754
11
147.602
21
-93.754
0
CIRCLE
8
FFab
62
5
10
149.352
20
-95.504
40
1.5
0
LINE
8
FCrtYd
62
7
10
178.86
20
-49.435
11
181.82
21
-49.435
0
LINE
8
FCrtYd
62
7
10
178.86
20
-50.895
11
178.86
21
-49.435
0
LINE
8
FCrtYd
62
7
10
181.82
20
-50.895
11
178.86
21
-50.895
0
LINE
8
FCrtYd
62
7
10
181.82
20
-49.435
11
181.82
21
-50.895
0
LINE
8
FFab
62
5
10
179.54
20
-49.7525
11
181.14
21
-49.7525
0
LINE
8
FFab
62
5
10
181.14
20
-50.5775
11
179.54
21
-50.5775
0
LINE
8
FFab
62
5
10
179.54
20
-50.5775
11
179.54
21
-49.7525
0
LINE
8
FFab
62
5
10
181.14
20
-49.7525
11
181.14
21
-50.5775
0
LINE
8
FCrtYd
62
7
10
159.075
20
-75.70375
11
162.475
21
-75.70375
0
LINE
8
FCrtYd
62
7
10
162.475
20
-77.66375
11
159.075
21
-77.66375
0
LINE
8
FCrtYd
62
7
10
162.475
20
-75.70375
11
162.475
21
-77.66375
0
LINE
8
FCrtYd
62
7
10
159.075
20
-77.66375
11
159.075
21
-75.70375
0
LINE
8
FFab
62
5
10
159.775
20
-76.05875
11
161.775
21
-76.05875
0
LINE
8
FFab
62
5
10
161.775
20
-77.30875
11
159.775
21
-77.30875
0
LINE
8
FFab
62
5
10
159.775
20
-77.30875
11
159.775
21
-76.05875
0
LINE
8
FFab
62
5
10
161.775
20
-76.05875
11
161.775
21
-77.30875
0
LINE
8
FCrtYd
62
7
10
149.015
20
-61.69
11
149.015
21
-60.23
0
LINE
8
FCrtYd
62
7
10
151.975
20
-60.23
11
151.975
21
-61.69
0
LINE
8
FCrtYd
62
7
10
149.015
20
-60.23
11
151.975
21
-60.23
0
LINE
8
FCrtYd
62
7
10
151.975
20
-61.69
11
149.015
21
-61.69
0
LINE
8
FFab
62
5
10
151.295
20
-61.3725
11
149.695
21
-61.3725
0
LINE
8
FFab
62
5
10
149.695
20
-60.5475
11
151.295
21
-60.5475
0
LINE
8
FFab
62
5
10
151.295
20
-60.5475
11
151.295
21
-61.3725
0
LINE
8
FFab
62
5
10
149.695
20
-61.3725
11
149.695
21
-60.5475
0
LINE
8
FCrtYd
62
7
10
177.08
20
-82.68875
11
177.08
21
-84.64875
0
LINE
8
FCrtYd
62
7
10
177.08
20
-84.64875
11
173.68
21
-84.64875
0
LINE
8
FCrtYd
62
7
10
173.68
20
-82.68875
11
177.08
21
-82.68875
0
LINE
8
FCrtYd
62
7
10
173.68
20
-84.64875
11
173.68
21
-82.68875
0
LINE
8
FFab
62
5
10
174.38
20
-83.04375
11
176.38
21
-83.04375
0
LINE
8
FFab
62
5
10
176.38
20
-83.04375
11
176.38
21
-84.29375
0
LINE
8
FFab
62
5
10
174.38
20
-84.29375
11
174.38
21
-83.04375
0
LINE
8
FFab
62
5
10
176.38
20
-84.29375
11
174.38
21
-84.29375
0
LINE
8
FCrtYd
62
7
10
173.9
20
-81.03375
11
176.86
21
-81.03375
0
LINE
8
FCrtYd
62
7
10
176.86
20
-81.03375
11
176.86
21
-82.49375
0
LINE
8
FCrtYd
62
7
10
176.86
20
-82.49375
11
173.9
21
-82.49375
0
LINE
8
FCrtYd
62
7
10
173.9
20
-82.49375
11
173.9
21
-81.03375
0
LINE
8
FFab
62
5
10
174.58
20
-82.16375
11
174.58
21
-81.36375
0
LINE
8
FFab
62
5
10
174.58
20
-81.36375
11
176.18
21
-81.36375
0
LINE
8
FFab
62
5
10
176.18
20
-81.36375
11
176.18
21
-82.16375
0
LINE
8
FFab
62
5
10
176.18
20
-82.16375
11
174.58
21
-82.16375
0
LINE
8
FCrtYd
62
7
10
169.115
20
-100.595
11
172.515
21
-100.595
0
LINE
8
FCrtYd
62
7
10
172.515
20
-96.255
11
169.115
21
-96.255
0
LINE
8
FCrtYd
62
7
10
169.115
20
-100.595
11
169.115
21
-96.255
0
LINE
8
FCrtYd
62
7
10
172.515
20
-96.255
11
172.515
21
-100.595
0
LINE
8
FFab
62
5
10
172.265
20
-99.305
11
172.265
21
-97.995
0
LINE
8
FFab
62
5
10
171.815
20
-97.545
11
172.265
21
-97.995
0
LINE
8
FFab
62
5
10
169.365
20
-99.305
11
169.365
21
-97.545
0
LINE
8
FFab
62
5
10
172.265
20
-99.305
11
169.365
21
-99.305
0
LINE
8
FFab
62
5
10
171.815
20
-97.545
11
169.365
21
-97.545
0
LINE
8
FCrtYd
62
7
10
186.07
20
-64.975
11
182.23
21
-64.975
0
LINE
8
FCrtYd
62
7
10
182.23
20
-68.375
11
186.07
21
-68.375
0
LINE
8
FCrtYd
62
7
10
182.23
20
-64.975
11
182.23
21
-68.375
0
LINE
8
FCrtYd
62
7
10
186.07
20
-68.375
11
186.07
21
-64.975
0
LINE
8
FFab
62
5
10
183.5
20
-68.125
11
183.5
21
-65.55
0
LINE
8
FFab
62
5
10
183.5
20
-65.55
11
183.825
21
-65.225
0
LINE
8
FFab
62
5
10
183.825
20
-65.225
11
184.8
21
-65.225
0
LINE
8
FFab
62
5
10
184.8
20
-68.125
11
183.5
21
-68.125
0
LINE
8
FFab
62
5
10
184.8
20
-65.225
11
184.8
21
-68.125
0
CIRCLE
8
Cmts
62
1
10
148.844
20
-103.124
40
3.2
0
CIRCLE
8
FCrtYd
62
7
10
148.844
20
-103.124
40
3.45
0
LINE
8
FCrtYd
62
7
10
186.795
20
-66.145
11
186.795
21
-74.795
0
LINE
8
FCrtYd
62
7
10
186.795
20
-74.795
11
190.395
21
-74.795
0
LINE
8
FCrtYd
62
7
10
190.395
20
-66.145
11
186.795
21
-66.145
0
LINE
8
FCrtYd
62
7
10
190.395
20
-74.795
11
190.395
21
-66.145
0
LINE
8
FFab
62
5
10
187.325
20
-74.295
11
187.325
21
-67.31
0
LINE
8
FFab
62
5
10
189.865
20
-66.675
11
189.865
21
-74.295
0
LINE
8
FFab
62
5
10
187.96
20
-66.675
11
189.865
21
-66.675
0
LINE
8
FFab
62
5
10
189.865
20
-74.295
11
187.325
21
-74.295
0
LINE
8
FFab
62
5
10
187.325
20
-67.31
11
187.96
21
-66.675
0
CIRCLE
8
Cmts
62
1
10
186.944
20
-50.292
40
3.2
0
CIRCLE
8
FCrtYd
62
7
10
186.944
20
-50.292
40
3.45
0
LINE
8
FCrtYd
62
7
10
186.922
20
-90.715
11
186.922
21
-99.365
0
LINE
8
FCrtYd
62
7
10
190.522
20
-99.365
11
190.522
21
-90.715
0
LINE
8
FCrtYd
62
7
10
190.522
20
-90.715
11
186.922
21
-90.715
0
LINE
8
FCrtYd
62
7
10
186.922
20
-99.365
11
190.522
21
-99.365
0
LINE
8
FFab
62
5
10
189.992
20
-91.245
11
189.992
21
-98.865
0
LINE
8
FFab
62
5
10
188.087
20
-91.245
11
189.992
21
-91.245
0
LINE
8
FFab
62
5
10
187.452
20
-98.865
11
187.452
21
-91.88
0
LINE
8
FFab
62
5
10
189.992
20
-98.865
11
187.452
21
-98.865
0
LINE
8
FFab
62
5
10
187.452
20
-91.88
11
188.087
21
-91.245
0
LINE
8
FCrtYd
62
7
10
186.07
20
-71.55
11
186.07
21
-68.15
0
LINE
8
FCrtYd
62
7
10
186.07
20
-68.15
11
182.23
21
-68.15
0
LINE
8
FCrtYd
62
7
10
182.23
20
-71.55
11
186.07
21
-71.55
0
LINE
8
FCrtYd
62
7
10
182.23
20
-68.15
11
182.23
21
-71.55
0
LINE
8
FFab
62
5
10
183.5
20
-71.3
11
183.5
21
-68.725
0
LINE
8
FFab
62
5
10
183.825
20
-68.4
11
184.8
21
-68.4
0
LINE
8
FFab
62
5
10
184.8
20
-68.4
11
184.8
21
-71.3
0
LINE
8
FFab
62
5
10
183.5
20
-68.725
11
183.825
21
-68.4
0
LINE
8
FFab
62
5
10
184.8
20
-71.3
11
183.5
21
-71.3
0
LINE
8
FCrtYd
62
7
10
182.096
20
-57.045
11
190.746
21
-57.045
0
LINE
8
FCrtYd
62
7
10
182.096
20
-53.445
11
182.096
21
-57.045
0
LINE
8
FCrtYd
62
7
10
190.746
20
-53.445
11
182.096
21
-53.445
0
LINE
8
FCrtYd
62
7
10
190.746
20
-57.045
11
190.746
21
-53.445
0
LINE
8
FFab
62
5
10
190.246
20
-56.515
11
183.261
21
-56.515
0
LINE
8
FFab
62
5
10
182.626
20
-53.975
11
190.246
21
-53.975
0
LINE
8
FFab
62
5
10
182.626
20
-55.88
11
182.626
21
-53.975
0
LINE
8
FFab
62
5
10
190.246
20
-53.975
11
190.246
21
-56.515
0
LINE
8
FFab
62
5
10
183.261
20
-56.515
11
182.626
21
-55.88
0
LINE
8
0
10
158.725
20
-103.4
11
167.665
21
-103.4
0
LINE
8
FCrtYd
62
7
10
168.465
20
-95.47
11
157.925
21
-95.47
0
LINE
8
FCrtYd
62
7
10
157.925
20
-95.47
11
157.925
21
-104.4
0
LINE
8
FCrtYd
62
7
10
168.465
20
-104.4
11
168.465
21
-95.47
0
LINE
8
FCrtYd
62
7
10
157.925
20
-104.4
11
168.465
21
-104.4
0
LINE
8
FFab
62
5
10
167.665
20
-96.58
11
167.665
21
-103.9
0
LINE
8
FFab
62
5
10
158.725
20
-96.58
11
158.725
21
-103.9
0
LINE
8
FFab
62
5
10
167.665
20
-103.9
11
158.725
21
-103.9
0
LINE
8
FFab
62
5
10
158.725
20
-96.58
11
167.665
21
-96.58
0
LINE
8
FCrtYd
62
7
10
162.775
20
-80.59875
11
158.775
21
-80.59875
0
LINE
8
FCrtYd
62
7
10
158.775
20
-80.59875
11
158.775
21
-84.19875
0
LINE
8
FCrtYd
62
7
10
158.775
20
-84.19875
11
162.775
21
-84.19875
0
LINE
8
FCrtYd
62
7
10
162.775
20
-84.19875
11
162.775
21
-80.59875
0
LINE
8
FFab
62
5
10
159.975
20
-83.89875
11
161.575
21
-83.89875
0
LINE
8
FFab
62
5
10
159.275
20
-81.09875
11
159.275
21
-83.69875
0
LINE
8
FFab
62
5
10
159.275
20
-83.69875
11
159.775
21
-83.69875
0
LINE
8
FFab
62
5
10
159.975
20
-80.89875
11
159.775
21
-81.09875
0
LINE
8
FFab
62
5
10
161.575
20
-80.89875
11
159.975
21
-80.89875
0
LINE
8
FFab
62
5
10
159.775
20
-83.69875
11
159.975
21
-83.89875
0
LINE
8
FFab
62
5
10
159.775
20
-81.09875
11
159.275
21
-81.09875
0
LINE
8
FFab
62
5
10
162.275
20
-81.09875
11
161.775
21
-81.09875
0
LINE
8
FFab
62
5
10
161.775
20
-83.69875
11
162.275
21
-83.69875
0
LINE
8
FFab
62
5
10
162.275
20
-83.69875
11
162.275
21
-81.09875
0
LINE
8
FFab
62
5
10
161.775
20
-81.09875
11
161.575
21
-80.89875
0
LINE
8
FFab
62
5
10
161.575
20
-83.89875
11
161.775
21
-83.69875
0
LINE
8
FCrtYd
62
7
10
182.02
20
-53.02
11
178.66
21
-53.02
0
LINE
8
FCrtYd
62
7
10
178.66
20
-53.02
11
178.66
21
-51.12
0
LINE
8
FCrtYd
62
7
10
182.02
20
-51.12
11
182.02
21
-53.02
0
LINE
8
FCrtYd
62
7
10
178.66
20
-51.12
11
182.02
21
-51.12
0
LINE
8
FFab
62
5
10
179.34
20
-51.77
11
179.34
21
-52.67
0
LINE
8
FFab
62
5
10
179.64
20
-51.47
11
179.34
21
-51.77
0
LINE
8
FFab
62
5
10
179.34
20
-52.67
11
181.34
21
-52.67
0
LINE
8
FFab
62
5
10
181.34
20
-52.67
11
181.34
21
-51.47
0
LINE
8
FFab
62
5
10
181.34
20
-51.47
11
179.64
21
-51.47
0
LINE
8
FCrtYd
62
7
10
186.922
20
-81.825
11
186.922
21
-90.475
0
LINE
8
FCrtYd
62
7
10
190.522
20
-81.825
11
186.922
21
-81.825
0
LINE
8
FCrtYd
62
7
10
190.522
20
-90.475
11
190.522
21
-81.825
0
LINE
8
FCrtYd
62
7
10
186.922
20
-90.475
11
190.522
21
-90.475
0
LINE
8
FFab
62
5
10
187.452
20
-82.99
11
188.087
21
-82.355
0
LINE
8
FFab
62
5
10
188.087
20
-82.355
11
189.992
21
-82.355
0
LINE
8
FFab
62
5
10
189.992
20
-89.975
11
187.452
21
-89.975
0
LINE
8
FFab
62
5
10
187.452
20
-89.975
11
187.452
21
-82.99
0
LINE
8
FFab
62
5
10
189.992
20
-82.355
11
189.992
21
-89.975
0
LINE
8
FCrtYd
62
7
10
183.112
20
-90.475
11
186.712
21
-90.475
0
LINE
8
FCrtYd
62
7
10
186.712
20
-81.825
11
183.112
21
-81.825
0
LINE
8
FCrtYd
62
7
10
183.112
20
-81.825
11
183.112
21
-90.475
0
LINE
8
FCrtYd
62
7
10
186.712
20
-90.475
11
186.712
21
-81.825
0
LINE
8
FFab
62
5
10
183.642
20
-82.99
11
184.277
21
-82.355
0
LINE
8
FFab
62
5
10
184.277
20
-82.355
11
186.182
21
-82.355
0
LINE
8
FFab
62
5
10
186.182
20
-82.355
11
186.182
21
-89.975
0
LINE
8
FFab
62
5
10
186.182
20
-89.975
11
183.642
21
-89.975
0
LINE
8
FFab
62
5
10
183.642
20
-89.975
11
183.642
21
-82.99
0
LINE
8
FCrtYd
62
7
10
186.07
20
-61.8
11
182.23
21
-61.8
0
LINE
8
FCrtYd
62
7
10
182.23
20
-65.2
11
186.07
21
-65.2
0
LINE
8
FCrtYd
62
7
10
186.07
20
-65.2
11
186.07
21
-61.8
0
LINE
8
FCrtYd
62
7
10
182.23
20
-61.8
11
182.23
21
-65.2
0
LINE
8
FFab
62
5
10
183.5
20
-62.375
11
183.825
21
-62.05
0
LINE
8
FFab
62
5
10
184.8
20
-62.05
11
184.8
21
-64.95
0
LINE
8
FFab
62
5
10
183.5
20
-64.95
11
183.5
21
-62.375
0
LINE
8
FFab
62
5
10
184.8
20
-64.95
11
183.5
21
-64.95
0
LINE
8
FFab
62
5
10
183.825
20
-62.05
11
184.8
21
-62.05
0
LINE
8
FCrtYd
62
7
10
157.055
20
-50.07
11
157.055
21
-51.53
0
LINE
8
FCrtYd
62
7
10
157.055
20
-51.53
11
154.095
21
-51.53
0
LINE
8
FCrtYd
62
7
10
154.095
20
-51.53
11
154.095
21
-50.07
0
LINE
8
FCrtYd
62
7
10
154.095
20
-50.07
11
157.055
21
-50.07
0
LINE
8
FFab
62
5
10
156.375
20
-51.2125
11
154.775
21
-51.2125
0
LINE
8
FFab
62
5
10
154.775
20
-50.3875
11
156.375
21
-50.3875
0
LINE
8
FFab
62
5
10
154.775
20
-51.2125
11
154.775
21
-50.3875
0
LINE
8
FFab
62
5
10
156.375
20
-50.3875
11
156.375
21
-51.2125
0
LINE
8
FCrtYd
62
7
10
178.54
20
-98.33
11
182.14
21
-98.33
0
LINE
8
FCrtYd
62
7
10
153.14
20
-54.08
11
153.14
21
-98.33
0
LINE
8
FCrtYd
62
7
10
178.54
20
-54.08
11
178.54
21
-98.33
0
LINE
8
FCrtYd
62
7
10
153.14
20
-98.33
11
156.74
21
-98.33
0
LINE
8
FCrtYd
62
7
10
182.14
20
-98.33
11
182.14
21
-54.08
0
LINE
8
FCrtYd
62
7
10
156.74
20
-54.08
11
153.14
21
-54.08
0
LINE
8
FCrtYd
62
7
10
156.74
20
-98.33
11
156.74
21
-54.08
0
LINE
8
FCrtYd
62
7
10
182.14
20
-54.08
11
178.54
21
-54.08
0
LINE
8
FFab
62
5
10
179.07
20
-97.79
11
179.07
21
-55.245
0
LINE
8
FFab
62
5
10
156.21
20
-54.61
11
156.21
21
-97.79
0
LINE
8
FFab
62
5
10
179.705
20
-54.61
11
181.61
21
-54.61
0
LINE
8
FFab
62
5
10
179.07
20
-55.245
11
179.705
21
-54.61
0
LINE
8
FFab
62
5
10
181.61
20
-54.61
11
181.61
21
-97.79
0
LINE
8
FFab
62
5
10
156.21
20
-97.79
11
153.67
21
-97.79
0
LINE
8
FFab
62
5
10
181.61
20
-97.79
11
179.07
21
-97.79
0
LINE
8
FFab
62
5
10
153.67
20
-97.79
11
153.67
21
-55.245
0
LINE
8
FFab
62
5
10
154.305
20
-54.61
11
156.21
21
-54.61
0
LINE
8
FFab
62
5
10
153.67
20
-55.245
11
154.305
21
-54.61
0
LINE
8
Cmts
62
1
10
177.205
20
-44.715
11
181.805
21
-44.715
0
LINE
8
Cmts
62
1
10
176.405
20
-37.99
11
176.605
21
-38.19
0
LINE
8
Cmts
62
1
10
176.405
20
-42.59
11
176.405
21
-37.99
0
LINE
8
Cmts
62
1
10
176.405
20
-42.59
11
176.605
21
-42.39
0
LINE
8
Cmts
62
1
10
158.805
20
-44.715
11
158.605
21
-44.915
0
LINE
8
Cmts
62
1
10
154.205
20
-44.715
11
158.805
21
-44.715
0
LINE
8
Cmts
62
1
10
181.805
20
-44.715
11
181.605
21
-44.515
0
LINE
8
Cmts
62
1
10
154.205
20
-44.715
11
154.405
21
-44.915
0
LINE
8
Cmts
62
1
10
176.405
20
-42.59
11
176.205
21
-42.39
0
LINE
8
Cmts
62
1
10
176.405
20
-37.99
11
176.205
21
-38.19
0
LINE
8
Cmts
62
1
10
181.805
20
-44.715
11
181.605
21
-44.915
0
LINE
8
Cmts
62
1
10
177.205
20
-44.715
11
177.405
21
-44.915
0
LINE
8
Cmts
62
1
10
154.205
20
-44.715
11
154.405
21
-44.515
0
LINE
8
Cmts
62
1
10
177.205
20
-44.715
11
177.405
21
-44.515
0
LINE
8
Cmts
62
1
10
158.805
20
-44.715
11
158.605
21
-44.515
0
LINE
8
FCrtYd
62
7
10
153.755
20
-37.59
11
182.255
21
-37.59
0
LINE
8
FCrtYd
62
7
10
153.755
20
-48.87
11
158.255
21
-48.87
0
LINE
8
FCrtYd
62
7
10
158.255
20
-69.09
11
158.255
21
-48.87
0
LINE
8
FCrtYd
62
7
10
158.255
20
-69.09
11
177.755
21
-69.09
0
LINE
8
FCrtYd
62
7
10
182.255
20
-37.59
11
182.255
21
-48.87
0
LINE
8
FCrtYd
62
7
10
153.755
20
-37.59
11
153.755
21
-48.87
0
LINE
8
FCrtYd
62
7
10
177.755
20
-48.87
11
182.255
21
-48.87
0
LINE
8
FCrtYd
62
7
10
177.755
20
-48.87
11
177.755
21
-69.09
0
LINE
8
FFab
62
5
10
159.005
20
-42.845
11
177.005
21
-42.845
0
LINE
8
FFab
62
5
10
159.005
20
-49.57
11
159.005
21
-68.35
0
LINE
8
FFab
62
5
10
159.005
20
-49.57
11
159.505
21
-49.07
0
LINE
8
FFab
62
5
10
177.005
20
-68.35
11
177.005
21
-42.845
0
LINE
8
FFab
62
5
10
159.505
20
-49.07
11
159.005
21
-48.57
0
LINE
8
FFab
62
5
10
159.005
20
-42.845
11
159.005
21
-48.57
0
LINE
8
FFab
62
5
10
159.005
20
-68.35
11
177.005
21
-68.35
0
LINE
8
FCrtYd
62
7
10
183.112
20
-99.321
11
186.712
21
-99.321
0
LINE
8
FCrtYd
62
7
10
186.712
20
-90.671
11
183.112
21
-90.671
0
LINE
8
FCrtYd
62
7
10
186.712
20
-99.321
11
186.712
21
-90.671
0
LINE
8
FCrtYd
62
7
10
183.112
20
-90.671
11
183.112
21
-99.321
0
LINE
8
FFab
62
5
10
184.277
20
-91.201
11
186.182
21
-91.201
0
LINE
8
FFab
62
5
10
183.642
20
-91.836
11
184.277
21
-91.201
0
LINE
8
FFab
62
5
10
186.182
20
-98.821
11
183.642
21
-98.821
0
LINE
8
FFab
62
5
10
186.182
20
-91.201
11
186.182
21
-98.821
0
LINE
8
FFab
62
5
10
183.642
20
-98.821
11
183.642
21
-91.836
0
LINE
8
FCrtYd
62
7
10
173.9
20
-77.41375
11
173.9
21
-75.95375
0
LINE
8
FCrtYd
62
7
10
176.86
20
-77.41375
11
173.9
21
-77.41375
0
LINE
8
FCrtYd
62
7
10
176.86
20
-75.95375
11
176.86
21
-77.41375
0
LINE
8
FCrtYd
62
7
10
173.9
20
-75.95375
11
176.86
21
-75.95375
0
LINE
8
FFab
62
5
10
174.58
20
-76.27125
11
176.18
21
-76.27125
0
LINE
8
FFab
62
5
10
176.18
20
-76.27125
11
176.18
21
-77.09625
0
LINE
8
FFab
62
5
10
174.58
20
-77.09625
11
174.58
21
-76.27125
0
LINE
8
FFab
62
5
10
176.18
20
-77.09625
11
174.58
21
-77.09625
0
LINE
8
FCrtYd
62
7
10
151.975
20
-67.85
11
151.975
21
-69.31
0
LINE
8
FCrtYd
62
7
10
151.975
20
-69.31
11
149.015
21
-69.31
0
LINE
8
FCrtYd
62
7
10
149.015
20
-69.31
11
149.015
21
-67.85
0
LINE
8
FCrtYd
62
7
10
149.015
20
-67.85
11
151.975
21
-67.85
0
LINE
8
FFab
62
5
10
149.695
20
-68.1675
11
151.295
21
-68.1675
0
LINE
8
FFab
62
5
10
149.695
20
-68.9925
11
149.695
21
-68.1675
0
LINE
8
FFab
62
5
10
151.295
20
-68.9925
11
149.695
21
-68.9925
0
LINE
8
FFab
62
5
10
151.295
20
-68.1675
11
151.295
21
-68.9925
0
LINE
8
FCrtYd
62
7
10
177.595
20
-96.255
11
177.595
21
-100.595
0
LINE
8
FCrtYd
62
7
10
174.195
20
-100.595
11
174.195
21
-96.255
0
LINE
8
FCrtYd
62
7
10
174.195
20
-100.595
11
177.595
21
-100.595
0
LINE
8
FCrtYd
62
7
10
177.595
20
-96.255
11
174.195
21
-96.255
0
LINE
8
FFab
62
5
10
177.345
20
-99.305
11
177.345
21
-97.995
0
LINE
8
FFab
62
5
10
174.445
20
-99.305
11
174.445
21
-97.545
0
LINE
8
FFab
62
5
10
176.895
20
-97.545
11
174.445
21
-97.545
0
LINE
8
FFab
62
5
10
176.895
20
-97.545
11
177.345
21
-97.995
0
LINE
8
FFab
62
5
10
177.345
20
-99.305
11
174.445
21
-99.305
0
LINE
8
FCrtYd
62
7
10
190.395
20
-65.92
11
190.395
21
-57.27
0
LINE
8
FCrtYd
62
7
10
186.795
20
-65.92
11
190.395
21
-65.92
0
LINE
8
FCrtYd
62
7
10
190.395
20
-57.27
11
186.795
21
-57.27
0
LINE
8
FCrtYd
62
7
10
186.795
20
-57.27
11
186.795
21
-65.92
0
LINE
8
FFab
62
5
10
189.865
20
-65.42
11
187.325
21
-65.42
0
LINE
8
FFab
62
5
10
187.325
20
-58.435
11
187.96
21
-57.8
0
LINE
8
FFab
62
5
10
189.865
20
-57.8
11
189.865
21
-65.42
0
LINE
8
FFab
62
5
10
187.325
20
-65.42
11
187.325
21
-58.435
0
LINE
8
FFab
62
5
10
187.96
20
-57.8
11
189.865
21
-57.8
0
LINE
8
FCrtYd
62
7
10
157.055
20
-51.34
11
157.055
21
-52.8
0
LINE
8
FCrtYd
62
7
10
154.095
20
-52.8
11
154.095
21
-51.34
0
LINE
8
FCrtYd
62
7
10
157.055
20
-52.8
11
154.095
21
-52.8
0
LINE
8
FCrtYd
62
7
10
154.095
20
-51.34
11
157.055
21
-51.34
0
LINE
8
FFab
62
5
10
156.375
20
-51.6575
11
156.375
21
-52.4825
0
LINE
8
FFab
62
5
10
154.775
20
-51.6575
11
156.375
21
-51.6575
0
LINE
8
FFab
62
5
10
156.375
20
-52.4825
11
154.775
21
-52.4825
0
LINE
8
FFab
62
5
10
154.775
20
-52.4825
11
154.775
21
-51.6575
0
LINE
8
FCrtYd
62
7
10
174.415
20
-94.52
11
177.375
21
-94.52
0
LINE
8
FCrtYd
62
7
10
174.415
20
-95.98
11
174.415
21
-94.52
0
LINE
8
FCrtYd
62
7
10
177.375
20
-94.52
11
177.375
21
-95.98
0
LINE
8
FCrtYd
62
7
10
177.375
20
-95.98
11
174.415
21
-95.98
0
LINE
8
FFab
62
5
10
175.095
20
-95.6625
11
175.095
21
-94.8375
0
LINE
8
FFab
62
5
10
175.095
20
-94.8375
11
176.695
21
-94.8375
0
LINE
8
FFab
62
5
10
176.695
20
-95.6625
11
175.095
21
-95.6625
0
LINE
8
FFab
62
5
10
176.695
20
-94.8375
11
176.695
21
-95.6625
0
LINE
8
FCrtYd
62
7
10
151.025
20
-74.4
11
147.425
21
-74.4
0
LINE
8
FCrtYd
62
7
10
151.025
20
-90.7
11
151.025
21
-74.4
0
LINE
8
FCrtYd
62
7
10
147.425
20
-74.4
11
147.425
21
-90.7
0
LINE
8
FCrtYd
62
7
10
147.425
20
-90.7
11
151.025
21
-90.7
0
LINE
8
FFab
62
5
10
147.955
20
-90.17
11
147.955
21
-75.565
0
LINE
8
FFab
62
5
10
148.59
20
-74.93
11
150.495
21
-74.93
0
LINE
8
FFab
62
5
10
150.495
20
-90.17
11
147.955
21
-90.17
0
LINE
8
FFab
62
5
10
147.955
20
-75.565
11
148.59
21
-74.93
0
LINE
8
FFab
62
5
10
150.495
20
-74.93
11
150.495
21
-90.17
0
LINE
8
FCrtYd
62
7
10
159.075
20
-78.24375
11
162.475
21
-78.24375
0
LINE
8
FCrtYd
62
7
10
159.075
20
-80.20375
11
159.075
21
-78.24375
0
LINE
8
FCrtYd
62
7
10
162.475
20
-80.20375
11
159.075
21
-80.20375
0
LINE
8
FCrtYd
62
7
10
162.475
20
-78.24375
11
162.475
21
-80.20375
0
LINE
8
FFab
62
5
10
159.775
20
-78.59875
11
161.775
21
-78.59875
0
LINE
8
FFab
62
5
10
161.775
20
-78.59875
11
161.775
21
-79.84875
0
LINE
8
FFab
62
5
10
161.775
20
-79.84875
11
159.775
21
-79.84875
0
LINE
8
FFab
62
5
10
159.775
20
-79.84875
11
159.775
21
-78.59875
0
LINE
8
FCrtYd
62
7
10
172.295
20
-94.52
11
172.295
21
-95.98
0
LINE
8
FCrtYd
62
7
10
169.335
20
-95.98
11
169.335
21
-94.52
0
LINE
8
FCrtYd
62
7
10
172.295
20
-95.98
11
169.335
21
-95.98
0
LINE
8
FCrtYd
62
7
10
169.335
20
-94.52
11
172.295
21
-94.52
0
LINE
8
FFab
62
5
10
170.015
20
-95.6625
11
170.015
21
-94.8375
0
LINE
8
FFab
62
5
10
171.615
20
-95.6625
11
170.015
21
-95.6625
0
LINE
8
FFab
62
5
10
171.615
20
-94.8375
11
171.615
21
-95.6625
0
LINE
8
FFab
62
5
10
170.015
20
-94.8375
11
171.615
21
-94.8375
0
LINE
8
FCrtYd
62
7
10
171.9775
20
-103.82
11
171.9775
21
-101.92
0
LINE
8
FCrtYd
62
7
10
175.3375
20
-101.92
11
175.3375
21
-103.82
0
LINE
8
FCrtYd
62
7
10
175.3375
20
-103.82
11
171.9775
21
-103.82
0
LINE
8
FCrtYd
62
7
10
171.9775
20
-101.92
11
175.3375
21
-101.92
0
LINE
8
FFab
62
5
10
174.6575
20
-102.27
11
172.9575
21
-102.27
0
LINE
8
FFab
62
5
10
174.6575
20
-103.47
11
174.6575
21
-102.27
0
LINE
8
FFab
62
5
10
172.6575
20
-102.57
11
172.6575
21
-103.47
0
LINE
8
FFab
62
5
10
172.9575
20
-102.27
11
172.6575
21
-102.57
0
LINE
8
FFab
62
5
10
172.6575
20
-103.47
11
174.6575
21
-103.47
0
LINE
8
FCrtYd
62
7
10
151.975
20
-92.932
11
149.015
21
-92.932
0
LINE
8
FCrtYd
62
7
10
151.975
20
-91.472
11
151.975
21
-92.932
0
LINE
8
FCrtYd
62
7
10
149.015
20
-91.472
11
151.975
21
-91.472
0
LINE
8
FCrtYd
62
7
10
149.015
20
-92.932
11
149.015
21
-91.472
0
LINE
8
FFab
62
5
10
151.295
20
-92.6145
11
149.695
21
-92.6145
0
LINE
8
FFab
62
5
10
149.695
20
-91.7895
11
151.295
21
-91.7895
0
LINE
8
FFab
62
5
10
149.695
20
-92.6145
11
149.695
21
-91.7895
0
LINE
8
FFab
62
5
10
151.295
20
-91.7895
11
151.295
21
-92.6145
0
CIRCLE
8
Cmts
62
1
10
148.844
20
-50.292
40
3.2
0
CIRCLE
8
FCrtYd
62
7
10
148.844
20
-50.292
40
3.45
0
LINE
8
BCrtYd
62
8
10
154.095
20
-51.34
11
154.095
21
-52.8
0
LINE
8
BCrtYd
62
8
10
157.055
20
-51.34
11
154.095
21
-51.34
0
LINE
8
BCrtYd
62
8
10
157.055
20
-52.8
11
157.055
21
-51.34
0
LINE
8
BCrtYd
62
8
10
154.095
20
-52.8
11
157.055
21
-52.8
0
LINE
8
BFab
62
6
10
156.375
20
-51.67
11
154.775
21
-51.67
0
LINE
8
BFab
62
6
10
156.375
20
-52.47
11
156.375
21
-51.67
0
LINE
8
BFab
62
6
10
154.775
20
-52.47
11
156.375
21
-52.47
0
LINE
8
BFab
62
6
10
154.775
20
-51.67
11
154.775
21
-52.47
0
LINE
8
BCrtYd
62
8
10
166.79
20
-92.29
11
166.79
21
-88.05
0
LINE
8
BCrtYd
62
8
10
171.03
20
-88.05
11
171.03
21
-92.29
0
LINE
8
BCrtYd
62
8
10
166.79
20
-88.05
11
171.03
21
-88.05
0
LINE
8
BCrtYd
62
8
10
171.03
20
-92.29
11
166.79
21
-92.29
0
LINE
8
BFab
62
6
10
170.41
20
-91.67
11
170.41
21
-88.67
0
LINE
8
BFab
62
6
10
167.41
20
-90.92
11
168.16
21
-91.67
0
LINE
8
BFab
62
6
10
167.41
20
-88.67
11
167.41
21
-90.92
0
LINE
8
BFab
62
6
10
168.16
20
-91.67
11
170.41
21
-91.67
0
LINE
8
BFab
62
6
10
170.41
20
-88.67
11
167.41
21
-88.67
0
LINE
8
BCrtYd
62
8
10
175.939
20
-73.12
11
178.899
21
-73.12
0
LINE
8
BCrtYd
62
8
10
175.939
20
-71.66
11
175.939
21
-73.12
0
LINE
8
BCrtYd
62
8
10
178.899
20
-73.12
11
178.899
21
-71.66
0
LINE
8
BCrtYd
62
8
10
178.899
20
-71.66
11
175.939
21
-71.66
0
LINE
8
BFab
62
6
10
176.619
20
-72.8025
11
178.219
21
-72.8025
0
LINE
8
BFab
62
6
10
178.219
20
-72.8025
11
178.219
21
-71.9775
0
LINE
8
BFab
62
6
10
178.219
20
-71.9775
11
176.619
21
-71.9775
0
LINE
8
BFab
62
6
10
176.619
20
-71.9775
11
176.619
21
-72.8025
0
LINE
8
BCrtYd
62
8
10
181.896
20
-83.903
11
183.356
21
-83.903
0
LINE
8
BCrtYd
62
8
10
181.896
20
-80.943
11
181.896
21
-83.903
0
LINE
8
BCrtYd
62
8
10
183.356
20
-83.903
11
183.356
21
-80.943
0
LINE
8
BCrtYd
62
8
10
183.356
20
-80.943
11
181.896
21
-80.943
0
LINE
8
BFab
62
6
10
182.2135
20
-81.623
11
182.2135
21
-83.223
0
LINE
8
BFab
62
6
10
182.2135
20
-83.223
11
183.0385
21
-83.223
0
LINE
8
BFab
62
6
10
183.0385
20
-81.623
11
182.2135
21
-81.623
0
LINE
8
BFab
62
6
10
183.0385
20
-83.223
11
183.0385
21
-81.623
0
LINE
8
BCrtYd
62
8
10
183.864
20
-84.245
11
182.404
21
-84.245
0
LINE
8
BCrtYd
62
8
10
182.404
20
-87.205
11
183.864
21
-87.205
0
LINE
8
BCrtYd
62
8
10
183.864
20
-87.205
11
183.864
21
-84.245
0
LINE
8
BCrtYd
62
8
10
182.404
20
-84.245
11
182.404
21
-87.205
0
LINE
8
BFab
62
6
10
183.5465
20
-86.525
11
183.5465
21
-84.925
0
LINE
8
BFab
62
6
10
183.5465
20
-84.925
11
182.7215
21
-84.925
0
LINE
8
BFab
62
6
10
182.7215
20
-84.925
11
182.7215
21
-86.525
0
LINE
8
BFab
62
6
10
182.7215
20
-86.525
11
183.5465
21
-86.525
0
LINE
8
BCrtYd
62
8
10
176.32
20
-62.325
11
179.28
21
-62.325
0
LINE
8
BCrtYd
62
8
10
179.28
20
-60.865
11
176.32
21
-60.865
0
LINE
8
BCrtYd
62
8
10
179.28
20
-62.325
11
179.28
21
-60.865
0
LINE
8
BCrtYd
62
8
10
176.32
20
-60.865
11
176.32
21
-62.325
0
LINE
8
BFab
62
6
10
178.6
20
-61.1825
11
177.0
21
-61.1825
0
LINE
8
BFab
62
6
10
178.6
20
-62.0075
11
178.6
21
-61.1825
0
LINE
8
BFab
62
6
10
177.0
20
-62.0075
11
178.6
21
-62.0075
0
LINE
8
BFab
62
6
10
177.0
20
-61.1825
11
177.0
21
-62.0075
0
LINE
8
BCrtYd
62
8
10
176.32
20
-64.675
11
176.32
21
-66.135
0
LINE
8
BCrtYd
62
8
10
179.28
20
-64.675
11
176.32
21
-64.675
0
LINE
8
BCrtYd
62
8
10
176.32
20
-66.135
11
179.28
21
-66.135
0
LINE
8
BCrtYd
62
8
10
179.28
20
-66.135
11
179.28
21
-64.675
0
LINE
8
BFab
62
6
10
178.6
20
-64.9925
11
177.0
21
-64.9925
0
LINE
8
BFab
62
6
10
177.0
20
-65.8175
11
178.6
21
-65.8175
0
LINE
8
BFab
62
6
10
177.0
20
-64.9925
11
177.0
21
-65.8175
0
LINE
8
BFab
62
6
10
178.6
20
-65.8175
11
178.6
21
-64.9925
0
LINE
8
BCrtYd
62
8
10
161.5
20
-85.63
11
158.54
21
-85.63
0
LINE
8
BCrtYd
62
8
10
158.54
20
-87.09
11
161.5
21
-87.09
0
LINE
8
BCrtYd
62
8
10
161.5
20
-87.09
11
161.5
21
-85.63
0
LINE
8
BCrtYd
62
8
10
158.54
20
-85.63
11
158.54
21
-87.09
0
LINE
8
BFab
62
6
10
159.22
20
-86.76
11
160.82
21
-86.76
0
LINE
8
BFab
62
6
10
160.82
20
-85.96
11
159.22
21
-85.96
0
LINE
8
BFab
62
6
10
159.22
20
-85.96
11
159.22
21
-86.76
0
LINE
8
BFab
62
6
10
160.82
20
-86.76
11
160.82
21
-85.96
0
LINE
8
BCrtYd
62
8
10
176.69
20
-60.15
11
158.59
21
-60.15
0
LINE
8
BCrtYd
62
8
10
158.59
20
-60.15
11
158.59
21
-52.25
0
LINE
8
BCrtYd
62
8
10
158.59
20
-52.25
11
176.69
21
-52.25
0
LINE
8
BCrtYd
62
8
10
176.69
20
-52.25
11
176.69
21
-60.15
0
LINE
8
BFab
62
6
10
175.09
20
-53.45
11
175.09
21
-52.75
0
LINE
8
BFab
62
6
10
174.59
20
-53.45
11
175.09
21
-53.45
0
LINE
8
BFab
62
6
10
174.59
20
-53.75
11
174.59
21
-53.45
0
LINE
8
BFab
62
6
10
167.64
20
-58.35
11
160.09
21
-58.35
0
LINE
8
BFab
62
6
10
160.69
20
-53.75
11
160.69
21
-53.45
0
LINE
8
BFab
62
6
10
160.09
20
-53.75
11
160.69
21
-53.75
0
LINE
8
BFab
62
6
10
160.09
20
-58.35
11
160.09
21
-53.75
0
LINE
8
BFab
62
6
10
160.19
20
-53.45
11
160.19
21
-52.75
0
LINE
8
BFab
62
6
10
175.19
20
-53.75
11
174.59
21
-53.75
0
LINE
8
BFab
62
6
10
161.39
20
-58.35
11
161.89
21
-57.642893
0
LINE
8
BFab
62
6
10
160.69
20
-53.45
11
160.19
21
-53.45
0
LINE
8
BFab
62
6
10
175.09
20
-52.75
11
167.64
21
-52.75
0
LINE
8
BFab
62
6
10
161.89
20
-57.642893
11
162.39
21
-58.35
0
LINE
8
BFab
62
6
10
167.64
20
-58.35
11
175.19
21
-58.35
0
LINE
8
BFab
62
6
10
160.19
20
-52.75
11
167.64
21
-52.75
0
LINE
8
BFab
62
6
10
175.19
20
-58.35
11
175.19
21
-53.75
0
LINE
8
BCrtYd
62
8
10
161.83
20
-91.545
11
165.83
21
-91.545
0
LINE
8
BCrtYd
62
8
10
165.83
20
-91.545
11
165.83
21
-95.145
0
LINE
8
BCrtYd
62
8
10
165.83
20
-95.145
11
161.83
21
-95.145
0
LINE
8
BCrtYd
62
8
10
161.83
20
-95.145
11
161.83
21
-91.545
0
LINE
8
BFab
62
6
10
165.33
20
-94.645
11
164.83
21
-94.645
0
LINE
8
BFab
62
6
10
163.03
20
-91.845
11
164.63
21
-91.845
0
LINE
8
BFab
62
6
10
164.63
20
-91.845
11
164.83
21
-92.045
0
LINE
8
BFab
62
6
10
164.83
20
-92.045
11
165.33
21
-92.045
0
LINE
8
BFab
62
6
10
162.33
20
-92.045
11
162.83
21
-92.045
0
LINE
8
BFab
62
6
10
162.83
20
-94.645
11
162.33
21
-94.645
0
LINE
8
BFab
62
6
10
164.83
20
-94.645
11
164.63
21
-94.845
0
LINE
8
BFab
62
6
10
162.83
20
-92.045
11
163.03
21
-91.845
0
LINE
8
BFab
62
6
10
162.33
20
-94.645
11
162.33
21
-92.045
0
LINE
8
BFab
62
6
10
164.63
20
-94.845
11
163.03
21
-94.845
0
LINE
8
BFab
62
6
10
163.03
20
-94.845
11
162.83
21
-94.645
0
LINE
8
BFab
62
6
10
165.33
20
-92.045
11
165.33
21
-94.645
0
LINE
8
BCrtYd
62
8
10
169.45
20
-92.815
11
173.45
21
-92.815
0
LINE
8
BCrtYd
62
8
10
169.45
20
-96.415
11
169.45
21
-92.815
0
LINE
8
BCrtYd
62
8
10
173.45
20
-96.415
11
169.45
21
-96.415
0
LINE
8
BCrtYd
62
8
10
173.45
20
-92.815
11
173.45
21
-96.415
0
LINE
8
BFab
62
6
10
169.95
20
-95.915
11
169.95
21
-93.315
0
LINE
8
BFab
62
6
10
172.25
20
-96.115
11
170.65
21
-96.115
0
LINE
8
BFab
62
6
10
172.45
20
-93.315
11
172.95
21
-93.315
0
LINE
8
BFab
62
6
10
170.45
20
-93.315
11
170.65
21
-93.115
0
LINE
8
BFab
62
6
10
170.65
20
-93.115
11
172.25
21
-93.115
0
LINE
8
BFab
62
6
10
169.95
20
-93.315
11
170.45
21
-93.315
0
LINE
8
BFab
62
6
10
172.25
20
-93.115
11
172.45
21
-93.315
0
LINE
8
BFab
62
6
10
170.45
20
-95.915
11
169.95
21
-95.915
0
LINE
8
BFab
62
6
10
172.45
20
-95.915
11
172.25
21
-96.115
0
LINE
8
BFab
62
6
10
172.95
20
-95.915
11
172.45
21
-95.915
0
LINE
8
BFab
62
6
10
170.65
20
-96.115
11
170.45
21
-95.915
0
LINE
8
BFab
62
6
10
172.95
20
-93.315
11
172.95
21
-95.915
0
LINE
8
BCrtYd
62
8
10
172.18
20
-87.205
11
172.18
21
-84.245
0
LINE
8
BCrtYd
62
8
10
170.72
20
-84.245
11
170.72
21
-87.205
0
LINE
8
BCrtYd
62
8
10
170.72
20
-87.205
11
172.18
21
-87.205
0
LINE
8
BCrtYd
62
8
10
172.18
20
-84.245
11
170.72
21
-84.245
0
LINE
8
BFab
62
6
10
171.8625
20
-84.925
11
171.0375
21
-84.925
0
LINE
8
BFab
62
6
10
171.0375
20
-84.925
11
171.0375
21
-86.525
0
LINE
8
BFab
62
6
10
171.8625
20
-86.525
11
171.8625
21
-84.925
0
LINE
8
BFab
62
6
10
171.0375
20
-86.525
11
171.8625
21
-86.525
0
LINE
8
BCrtYd
62
8
10
162.35
20
-89.44
11
162.35
21
-90.9
0
LINE
8
BCrtYd
62
8
10
165.31
20
-90.9
11
165.31
21
-89.44
0
LINE
8
BCrtYd
62
8
10
162.35
20
-90.9
11
165.31
21
-90.9
0
LINE
8
BCrtYd
62
8
10
165.31
20
-89.44
11
162.35
21
-89.44
0
LINE
8
BFab
62
6
10
164.63
20
-89.77
11
163.03
21
-89.77
0
LINE
8
BFab
62
6
10
163.03
20
-90.57
11
164.63
21
-90.57
0
LINE
8
BFab
62
6
10
164.63
20
-90.57
11
164.63
21
-89.77
0
LINE
8
BFab
62
6
10
163.03
20
-89.77
11
163.03
21
-90.57
0
LINE
8
BCrtYd
62
8
10
157.055
20
-49.435
11
154.095
21
-49.435
0
LINE
8
BCrtYd
62
8
10
154.095
20
-49.435
11
154.095
21
-50.895
0
LINE
8
BCrtYd
62
8
10
154.095
20
-50.895
11
157.055
21
-50.895
0
LINE
8
BCrtYd
62
8
10
157.055
20
-50.895
11
157.055
21
-49.435
0
LINE
8
BFab
62
6
10
154.775
20
-49.7525
11
154.775
21
-50.5775
0
LINE
8
BFab
62
6
10
154.775
20
-50.5775
11
156.375
21
-50.5775
0
LINE
8
BFab
62
6
10
156.375
20
-49.7525
11
154.775
21
-49.7525
0
LINE
8
BFab
62
6
10
156.375
20
-50.5775
11
156.375
21
-49.7525
0
LINE
8
BCrtYd
62
8
10
165.31
20
-88.995
11
165.31
21
-87.535
0
LINE
8
BCrtYd
62
8
10
162.35
20
-88.995
11
165.31
21
-88.995
0
LINE
8
BCrtYd
62
8
10
165.31
20
-87.535
11
162.35
21
-87.535
0
LINE
8
BCrtYd
62
8
10
162.35
20
-87.535
11
162.35
21
-88.995
0
LINE
8
BFab
62
6
10
164.63
20
-88.665
11
164.63
21
-87.865
0
LINE
8
BFab
62
6
10
163.03
20
-88.665
11
164.63
21
-88.665
0
LINE
8
BFab
62
6
10
163.03
20
-87.865
11
163.03
21
-88.665
0
LINE
8
BFab
62
6
10
164.63
20
-87.865
11
163.03
21
-87.865
0
LINE
8
BCrtYd
62
8
10
174.53
20
-84.245
11
174.53
21
-87.205
0
LINE
8
BCrtYd
62
8
10
175.99
20
-87.205
11
175.99
21
-84.245
0
LINE
8
BCrtYd
62
8
10
175.99
20
-84.245
11
174.53
21
-84.245
0
LINE
8
BCrtYd
62
8
10
174.53
20
-87.205
11
175.99
21
-87.205
0
LINE
8
BFab
62
6
10
174.86
20
-84.925
11
174.86
21
-86.525
0
LINE
8
BFab
62
6
10
174.86
20
-86.525
11
175.66
21
-86.525
0
LINE
8
BFab
62
6
10
175.66
20
-86.525
11
175.66
21
-84.925
0
LINE
8
BFab
62
6
10
175.66
20
-84.925
11
174.86
21
-84.925
0
LINE
8
BCrtYd
62
8
10
159.48
20
-91.725
11
158.02
21
-91.725
0
LINE
8
BCrtYd
62
8
10
158.02
20
-94.685
11
159.48
21
-94.685
0
LINE
8
BCrtYd
62
8
10
159.48
20
-94.685
11
159.48
21
-91.725
0
LINE
8
BCrtYd
62
8
10
158.02
20
-91.725
11
158.02
21
-94.685
0
LINE
8
BFab
62
6
10
158.35
20
-92.405
11
158.35
21
-94.005
0
LINE
8
BFab
62
6
10
158.35
20
-94.005
11
159.15
21
-94.005
0
LINE
8
BFab
62
6
10
159.15
20
-92.405
11
158.35
21
-92.405
0
LINE
8
BFab
62
6
10
159.15
20
-94.005
11
159.15
21
-92.405
0
LINE
8
BCrtYd
62
8
10
159.69
20
-82.89
11
175.59
21
-82.89
0
LINE
8
BCrtYd
62
8
10
159.69
20
-61.89
11
159.69
21
-82.89
0
LINE
8
BCrtYd
62
8
10
175.59
20
-61.89
11
159.69
21
-61.89
0
LINE
8
BCrtYd
62
8
10
175.59
20
-82.89
11
175.59
21
-61.89
0
LINE
8
BCrtYd
62
8
10
186.214
20
-92.5
11
186.214
21
-95.46
0
LINE
8
BCrtYd
62
8
10
187.674
20
-95.46
11
187.674
21
-92.5
0
LINE
8
BCrtYd
62
8
10
186.214
20
-95.46
11
187.674
21
-95.46
0
LINE
8
BCrtYd
62
8
10
187.674
20
-92.5
11
186.214
21
-92.5
0
LINE
8
BFab
62
6
10
186.5315
20
-94.78
11
187.3565
21
-94.78
0
LINE
8
BFab
62
6
10
187.3565
20
-94.78
11
187.3565
21
-93.18
0
LINE
8
BFab
62
6
10
186.5315
20
-93.18
11
186.5315
21
-94.78
0
LINE
8
BFab
62
6
10
187.3565
20
-93.18
11
186.5315
21
-93.18
0
LINE
8
BCrtYd
62
8
10
166.16
20
-95.98
11
169.12
21
-95.98
0
LINE
8
BCrtYd
62
8
10
166.16
20
-94.52
11
166.16
21
-95.98
0
LINE
8
BCrtYd
62
8
10
169.12
20
-94.52
11
166.16
21
-94.52
0
LINE
8
BCrtYd
62
8
10
169.12
20
-95.98
11
169.12
21
-94.52
0
LINE
8
BFab
62
6
10
168.44
20
-94.85
11
166.84
21
-94.85
0
LINE
8
BFab
62
6
10
166.84
20
-94.85
11
166.84
21
-95.65
0
LINE
8
BFab
62
6
10
166.84
20
-95.65
11
168.44
21
-95.65
0
LINE
8
BFab
62
6
10
168.44
20
-95.65
11
168.44
21
-94.85
0
LINE
8
BCrtYd
62
8
10
168.37
20
-84.245
11
166.91
21
-84.245
0
LINE
8
BCrtYd
62
8
10
168.37
20
-87.205
11
168.37
21
-84.245
0
LINE
8
BCrtYd
62
8
10
166.91
20
-84.245
11
166.91
21
-87.205
0
LINE
8
BCrtYd
62
8
10
166.91
20
-87.205
11
168.37
21
-87.205
0
LINE
8
BFab
62
6
10
167.24
20
-86.525
11
168.04
21
-86.525
0
LINE
8
BFab
62
6
10
167.24
20
-84.925
11
167.24
21
-86.525
0
LINE
8
BFab
62
6
10
168.04
20
-86.525
11
168.04
21
-84.925
0
LINE
8
BFab
62
6
10
168.04
20
-84.925
11
167.24
21
-84.925
0
LINE
8
BCrtYd
62
8
10
162.465
20
-83.925
11
166.465
21
-83.925
0
LINE
8
BCrtYd
62
8
10
166.465
20
-83.925
11
166.465
21
-87.525
0
LINE
8
BCrtYd
62
8
10
162.465
20
-87.525
11
162.465
21
-83.925
0
LINE
8
BCrtYd
62
8
10
166.465
20
-87.525
11
162.465
21
-87.525
0
LINE
8
BFab
62
6
10
163.665
20
-84.225
11
165.265
21
-84.225
0
LINE
8
BFab
62
6
10
165.965
20
-87.025
11
165.465
21
-87.025
0
LINE
8
BFab
62
6
10
165.465
20
-84.425
11
165.965
21
-84.425
0
LINE
8
BFab
62
6
10
162.965
20
-87.025
11
162.965
21
-84.425
0
LINE
8
BFab
62
6
10
163.665
20
-87.225
11
163.465
21
-87.025
0
LINE
8
BFab
62
6
10
165.465
20
-87.025
11
165.265
21
-87.225
0
LINE
8
BFab
62
6
10
165.965
20
-84.425
11
165.965
21
-87.025
0
LINE
8
BFab
62
6
10
162.965
20
-84.425
11
163.465
21
-84.425
0
LINE
8
BFab
62
6
10
163.465
20
-87.025
11
162.965
21
-87.025
0
LINE
8
BFab
62
6
10
163.465
20
-84.425
11
163.665
21
-84.225
0
LINE
8
BFab
62
6
10
165.265
20
-84.225
11
165.465
21
-84.425
0
LINE
8
BFab
62
6
10
165.265
20
-87.225
11
163.665
21
-87.225
0
LINE
8
BCrtYd
62
8
10
170.275
20
-84.245
11
168.815
21
-84.245
0
LINE
8
BCrtYd
62
8
10
168.815
20
-84.245
11
168.815
21
-87.205
0
LINE
8
BCrtYd
62
8
10
170.275
20
-87.205
11
170.275
21
-84.245
0
LINE
8
BCrtYd
62
8
10
168.815
20
-87.205
11
170.275
21
-87.205
0
LINE
8
BFab
62
6
10
169.945
20
-86.525
11
169.945
21
-84.925
0
LINE
8
BFab
62
6
10
169.945
20
-84.925
11
169.145
21
-84.925
0
LINE
8
BFab
62
6
10
169.145
20
-86.525
11
169.945
21
-86.525
0
LINE
8
BFab
62
6
10
169.145
20
-84.925
11
169.145
21
-86.525
0
LINE
8
BCrtYd
62
8
10
183.864
20
-95.46
11
183.864
21
-92.5
0
LINE
8
BCrtYd
62
8
10
182.404
20
-95.46
11
183.864
21
-95.46
0
LINE
8
BCrtYd
62
8
10
182.404
20
-92.5
11
182.404
21
-95.46
0
LINE
8
BCrtYd
62
8
10
183.864
20
-92.5
11
182.404
21
-92.5
0
LINE
8
BFab
62
6
10
183.5465
20
-93.18
11
182.7215
21
-93.18
0
LINE
8
BFab
62
6
10
182.7215
20
-93.18
11
182.7215
21
-94.78
0
LINE
8
BFab
62
6
10
183.5465
20
-94.78
11
183.5465
21
-93.18
0
LINE
8
BFab
62
6
10
182.7215
20
-94.78
11
183.5465
21
-94.78
0
LINE
8
BCrtYd
62
8
10
186.214
20
-87.205
11
187.674
21
-87.205
0
LINE
8
BCrtYd
62
8
10
187.674
20
-84.245
11
186.214
21
-84.245
0
LINE
8
BCrtYd
62
8
10
186.214
20
-84.245
11
186.214
21
-87.205
0
LINE
8
BCrtYd
62
8
10
187.674
20
-87.205
11
187.674
21
-84.245
0
LINE
8
BFab
62
6
10
187.3565
20
-84.925
11
186.5315
21
-84.925
0
LINE
8
BFab
62
6
10
187.3565
20
-86.525
11
187.3565
21
-84.925
0
LINE
8
BFab
62
6
10
186.5315
20
-86.525
11
187.3565
21
-86.525
0
LINE
8
BFab
62
6
10
186.5315
20
-84.925
11
186.5315
21
-86.525
0
LINE
8
BCrtYd
62
8
10
178.899
20
-78.327
11
178.899
21
-76.867
0
LINE
8
BCrtYd
62
8
10
175.939
20
-78.327
11
178.899
21
-78.327
0
LINE
8
BCrtYd
62
8
10
175.939
20
-76.867
11
175.939
21
-78.327
0
LINE
8
BCrtYd
62
8
10
178.899
20
-76.867
11
175.939
21
-76.867
0
LINE
8
BFab
62
6
10
176.619
20
-77.1845
11
176.619
21
-78.0095
0
LINE
8
BFab
62
6
10
178.219
20
-77.1845
11
176.619
21
-77.1845
0
LINE
8
BFab
62
6
10
178.219
20
-78.0095
11
178.219
21
-77.1845
0
LINE
8
BFab
62
6
10
176.619
20
-78.0095
11
178.219
21
-78.0095
0
LINE
8
BCrtYd
62
8
10
173.895
20
-93.135
11
173.895
21
-96.095
0
LINE
8
BCrtYd
62
8
10
175.355
20
-96.095
11
175.355
21
-93.135
0
LINE
8
BCrtYd
62
8
10
175.355
20
-93.135
11
173.895
21
-93.135
0
LINE
8
BCrtYd
62
8
10
173.895
20
-96.095
11
175.355
21
-96.095
0
LINE
8
BFab
62
6
10
174.225
20
-95.415
11
175.025
21
-95.415
0
LINE
8
BFab
62
6
10
175.025
20
-95.415
11
175.025
21
-93.815
0
LINE
8
BFab
62
6
10
174.225
20
-93.815
11
174.225
21
-95.415
0
LINE
8
BFab
62
6
10
175.025
20
-93.815
11
174.225
21
-93.815
0
LINE
8
BCrtYd
62
8
10
161.5
20
-89.44
11
158.54
21
-89.44
0
LINE
8
BCrtYd
62
8
10
161.5
20
-90.9
11
161.5
21
-89.44
0
LINE
8
BCrtYd
62
8
10
158.54
20
-90.9
11
161.5
21
-90.9
0
LINE
8
BCrtYd
62
8
10
158.54
20
-89.44
11
158.54
21
-90.9
0
LINE
8
BFab
62
6
10
159.22
20
-90.5825
11
160.82
21
-90.5825
0
LINE
8
BFab
62
6
10
160.82
20
-90.5825
11
160.82
21
-89.7575
0
LINE
8
BFab
62
6
10
160.82
20
-89.7575
11
159.22
21
-89.7575
0
LINE
8
BFab
62
6
10
159.22
20
-89.7575
11
159.22
21
-90.5825
0
LINE
8
BCrtYd
62
8
10
173.145
20
-87.535
11
173.145
21
-88.995
0
LINE
8
BCrtYd
62
8
10
176.105
20
-88.995
11
176.105
21
-87.535
0
LINE
8
BCrtYd
62
8
10
176.105
20
-87.535
11
173.145
21
-87.535
0
LINE
8
BCrtYd
62
8
10
173.145
20
-88.995
11
176.105
21
-88.995
0
LINE
8
BFab
62
6
10
175.425
20
-88.665
11
175.425
21
-87.865
0
LINE
8
BFab
62
6
10
173.825
20
-88.665
11
175.425
21
-88.665
0
LINE
8
BFab
62
6
10
175.425
20
-87.865
11
173.825
21
-87.865
0
LINE
8
BFab
62
6
10
173.825
20
-87.865
11
173.825
21
-88.665
0
LINE
8
BCrtYd
62
8
10
164.81
20
-98.595
11
160.31
21
-98.595
0
LINE
8
BCrtYd
62
8
10
164.81
20
-100.795
11
164.81
21
-98.595
0
LINE
8
BCrtYd
62
8
10
160.31
20
-100.795
11
164.81
21
-100.795
0
LINE
8
BCrtYd
62
8
10
160.31
20
-100.795
11
160.31
21
-98.595
0
LINE
8
BFab
62
6
10
162.21
20
-99.695
11
162.81
21
-100.095
0
LINE
8
BFab
62
6
10
163.86
20
-100.545
11
163.86
21
-98.845
0
LINE
8
BFab
62
6
10
163.86
20
-98.845
11
161.26
21
-98.845
0
LINE
8
BFab
62
6
10
161.81
20
-99.695
11
162.21
21
-99.695
0
LINE
8
BFab
62
6
10
162.21
20
-99.695
11
162.81
21
-99.295
0
LINE
8
BFab
62
6
10
162.81
20
-100.095
11
162.81
21
-99.295
0
LINE
8
BFab
62
6
10
161.26
20
-100.545
11
163.86
21
-100.545
0
LINE
8
BFab
62
6
10
161.26
20
-98.845
11
161.26
21
-100.545
0
LINE
8
BFab
62
6
10
163.31
20
-99.695
11
162.81
21
-99.695
0
LINE
8
BFab
62
6
10
162.21
20
-100.245
11
162.21
21
-99.145
0
LINE
8
BCrtYd
62
8
10
176.105
20
-91.345
11
173.145
21
-91.345
0
LINE
8
BCrtYd
62
8
10
173.145
20
-92.805
11
176.105
21
-92.805
0
LINE
8
BCrtYd
62
8
10
173.145
20
-91.345
11
173.145
21
-92.805
0
LINE
8
BCrtYd
62
8
10
176.105
20
-92.805
11
176.105
21
-91.345
0
LINE
8
BFab
62
6
10
173.825
20
-92.4875
11
175.425
21
-92.4875
0
LINE
8
BFab
62
6
10
175.425
20
-91.6625
11
173.825
21
-91.6625
0
LINE
8
BFab
62
6
10
175.425
20
-92.4875
11
175.425
21
-91.6625
0
LINE
8
BFab
62
6
10
173.825
20
-91.6625
11
173.825
21
-92.4875
0
LINE
8
BCrtYd
62
8
10
166.16
20
-94.71
11
169.12
21
-94.71
0
LINE
8
BCrtYd
62
8
10
166.16
20
-93.25
11
166.16
21
-94.71
0
LINE
8
BCrtYd
62
8
10
169.12
20
-93.25
11
166.16
21
-93.25
0
LINE
8
BCrtYd
62
8
10
169.12
20
-94.71
11
169.12
21
-93.25
0
LINE
8
BFab
62
6
10
168.44
20
-93.58
11
166.84
21
-93.58
0
LINE
8
BFab
62
6
10
168.44
20
-94.38
11
168.44
21
-93.58
0
LINE
8
BFab
62
6
10
166.84
20
-94.38
11
168.44
21
-94.38
0
LINE
8
BFab
62
6
10
166.84
20
-93.58
11
166.84
21
-94.38
0
LINE
8
BCrtYd
62
8
10
159.925
20
-94.685
11
161.385
21
-94.685
0
LINE
8
BCrtYd
62
8
10
161.385
20
-94.685
11
161.385
21
-91.725
0
LINE
8
BCrtYd
62
8
10
161.385
20
-91.725
11
159.925
21
-91.725
0
LINE
8
BCrtYd
62
8
10
159.925
20
-91.725
11
159.925
21
-94.685
0
LINE
8
BFab
62
6
10
161.055
20
-92.405
11
160.255
21
-92.405
0
LINE
8
BFab
62
6
10
160.255
20
-92.405
11
160.255
21
-94.005
0
LINE
8
BFab
62
6
10
161.055
20
-94.005
11
161.055
21
-92.405
0
LINE
8
BFab
62
6
10
160.255
20
-94.005
11
161.055
21
-94.005
0
LINE
8
BCrtYd
62
8
10
175.8
20
-93.135
11
175.8
21
-96.095
0
LINE
8
BCrtYd
62
8
10
177.26
20
-93.135
11
175.8
21
-93.135
0
LINE
8
BCrtYd
62
8
10
177.26
20
-96.095
11
177.26
21
-93.135
0
LINE
8
BCrtYd
62
8
10
175.8
20
-96.095
11
177.26
21
-96.095
0
LINE
8
BFab
62
6
10
176.93
20
-95.415
11
176.93
21
-93.815
0
LINE
8
BFab
62
6
10
176.13
20
-93.815
11
176.13
21
-95.415
0
LINE
8
BFab
62
6
10
176.13
20
-95.415
11
176.93
21
-95.415
0
LINE
8
BFab
62
6
10
176.93
20
-93.815
11
176.13
21
-93.815
0
LINE
8
BCrtYd
62
8
10
179.28
20
-58.96
11
176.32
21
-58.96
0
LINE
8
BCrtYd
62
8
10
179.28
20
-60.42
11
179.28
21
-58.96
0
LINE
8
BCrtYd
62
8
10
176.32
20
-60.42
11
179.28
21
-60.42
0
LINE
8
BCrtYd
62
8
10
176.32
20
-58.96
11
176.32
21
-60.42
0
LINE
8
BFab
62
6
10
177.0
20
-60.1025
11
178.6
21
-60.1025
0
LINE
8
BFab
62
6
10
178.6
20
-59.2775
11
177.0
21
-59.2775
0
LINE
8
BFab
62
6
10
178.6
20
-60.1025
11
178.6
21
-59.2775
0
LINE
8
BFab
62
6
10
177.0
20
-59.2775
11
177.0
21
-60.1025
0
LINE
8
BCrtYd
62
8
10
176.32
20
-64.23
11
179.28
21
-64.23
0
LINE
8
BCrtYd
62
8
10
176.32
20
-62.77
11
176.32
21
-64.23
0
LINE
8
BCrtYd
62
8
10
179.28
20
-62.77
11
176.32
21
-62.77
0
LINE
8
BCrtYd
62
8
10
179.28
20
-64.23
11
179.28
21
-62.77
0
LINE
8
BFab
62
6
10
177.0
20
-63.9125
11
178.6
21
-63.9125
0
LINE
8
BFab
62
6
10
178.6
20
-63.9125
11
178.6
21
-63.0875
0
LINE
8
BFab
62
6
10
178.6
20
-63.0875
11
177.0
21
-63.0875
0
LINE
8
BFab
62
6
10
177.0
20
-63.0875
11
177.0
21
-63.9125
0
LINE
8
BCrtYd
62
8
10
173.145
20
-89.44
11
173.145
21
-90.9
0
LINE
8
BCrtYd
62
8
10
176.105
20
-90.9
11
176.105
21
-89.44
0
LINE
8
BCrtYd
62
8
10
176.105
20
-89.44
11
173.145
21
-89.44
0
LINE
8
BCrtYd
62
8
10
173.145
20
-90.9
11
176.105
21
-90.9
0
LINE
8
BFab
62
6
10
173.825
20
-90.5825
11
175.425
21
-90.5825
0
LINE
8
BFab
62
6
10
175.425
20
-89.7575
11
173.825
21
-89.7575
0
LINE
8
BFab
62
6
10
173.825
20
-89.7575
11
173.825
21
-90.5825
0
LINE
8
BFab
62
6
10
175.425
20
-90.5825
11
175.425
21
-89.7575
0
LINE
8
BCrtYd
62
8
10
161.5
20
-87.535
11
158.54
21
-87.535
0
LINE
8
BCrtYd
62
8
10
161.5
20
-88.995
11
161.5
21
-87.535
0
LINE
8
BCrtYd
62
8
10
158.54
20
-87.535
11
158.54
21
-88.995
0
LINE
8
BCrtYd
62
8
10
158.54
20
-88.995
11
161.5
21
-88.995
0
LINE
8
BFab
62
6
10
160.82
20
-88.6775
11
160.82
21
-87.8525
0
LINE
8
BFab
62
6
10
159.22
20
-87.8525
11
159.22
21
-88.6775
0
LINE
8
BFab
62
6
10
159.22
20
-88.6775
11
160.82
21
-88.6775
0
LINE
8
BFab
62
6
10
160.82
20
-87.8525
11
159.22
21
-87.8525
0
LINE
8
BCrtYd
62
8
10
172.625
20
-87.205
11
174.085
21
-87.205
0
LINE
8
BCrtYd
62
8
10
174.085
20
-84.245
11
172.625
21
-84.245
0
LINE
8
BCrtYd
62
8
10
172.625
20
-84.245
11
172.625
21
-87.205
0
LINE
8
BCrtYd
62
8
10
174.085
20
-87.205
11
174.085
21
-84.245
0
LINE
8
BFab
62
6
10
173.7675
20
-86.525
11
173.7675
21
-84.925
0
LINE
8
BFab
62
6
10
173.7675
20
-84.925
11
172.9425
21
-84.925
0
LINE
8
BFab
62
6
10
172.9425
20
-84.925
11
172.9425
21
-86.525
0
LINE
8
BFab
62
6
10
172.9425
20
-86.525
11
173.7675
21
-86.525
0
ARC
8
Edge
62
2
10
149.098
20
-106.68
30
0
40
2.970517
50
14.175092
51
159.464534
0
ARC
8
Edge
62
2
10
190.499999
20
-102.87
30
0
40
2.970517
50
-297.206038
51
-110.535466
0
LINE
8
Edge
62
2
10
190.498558
20
-50.565427
11
190.499999
21
-102.87
0
LINE
8
Edge
62
2
10
186.69
20
-46.736
11
153.162
21
-46.736
0
ARC
8
Edge
62
2
10
145.288
20
-50.546
30
0
40
2.970517
50
-79.652893
51
69.464534
0
ARC
8
Edge
62
2
10
186.69
20
-46.736
30
0
40
2.970517
50
-211.034024
51
-20.535466
0
LINE
8
Edge
62
2
10
149.098
20
-106.68
11
186.670572
21
-106.678558
0
LINE
8
Edge
62
2
10
153.162
20
-46.736
11
149.117427
21
-46.737442
0
LINE
8
Edge
62
2
10
145.288
20
-50.546
11
145.289442
21
-102.850573
0
ENDSEC
0
EOF
